<svg width="140" height="104" viewBox="0 0 140 104" fill="none" xmlns="http://www.w3.org/2000/svg">
<path d="M86.2283 0C84.8808 0.116667 83.475 0.233333 82.1275 0.408333C76.3781 1.04838 70.7862 2.69516 65.6075 5.27333C60.269 7.88666 55.416 11.3923 51.2575 15.6392C51.0825 15.8725 50.7325 15.9892 50.435 15.9308C47.5473 15.5015 44.6236 15.3647 41.7083 15.5225C35.7619 15.8147 29.9396 17.3298 24.605 19.9733C14.2917 25.13 7.02917 33.1567 2.81167 43.9367C1.27293 47.9313 0.363763 52.1406 0.116667 56.4142C0.116667 56.7058 0.0583333 56.9392 0 57.1725V61.6817C0.116667 62.8542 0.291667 63.9683 0.408333 65.1408C0.991667 69.8833 2.345 74.4508 4.50917 78.7325C9.31583 88.3342 16.695 95.3633 26.5942 99.6975C31.1147 101.691 35.9543 102.862 40.8858 103.157C41.0725 103.157 41.2358 103.18 41.3875 103.215H91.4142C92.4817 103.116 93.5258 103.011 94.605 102.865C100.315 102.224 105.867 100.577 111.003 98C119.774 93.7188 127.149 87.0352 132.271 78.7267C135.778 73.2458 138.128 67.106 139.178 60.6842C139.469 58.7008 139.644 56.6475 139.883 54.6525C139.883 54.3608 139.942 54.1275 140 53.8942V49.2625C139.883 47.9208 139.708 46.6258 139.708 45.4008C139.068 39.6887 137.421 34.1352 134.843 28.9975C130.499 20.2339 123.78 12.8667 115.453 7.735C110.001 4.26995 103.906 1.93885 97.5333 0.880832C95.4217 0.530832 93.3742 0.355833 91.2625 0.122499C90.9708 0.122499 90.7375 0.0641662 90.4458 0.00583291L86.2283 0ZM88.3808 9.87583C100.783 9.905 111.306 14.6942 119.852 24.1967C124.69 29.6858 127.948 36.3854 129.278 43.5808C130.153 48.0375 130.334 52.605 129.687 57.1142C128.578 64.9658 125.592 71.9892 120.493 78.1433C114.569 85.4161 106.347 90.4563 97.1775 92.435C92.2731 93.5086 87.2174 93.7061 82.2442 93.0183C75.8567 92.2017 70 90.0958 64.7267 86.2867C63.3276 85.2857 62.0162 84.1675 60.8067 82.9442C53.655 75.915 46.5733 68.8275 39.4217 61.7983C37.6658 60.0483 37.5492 58.1117 38.3717 56.35C38.8017 55.4096 39.5242 54.6334 40.4315 54.1372C41.3387 53.641 42.382 53.4514 43.4058 53.5967C44.6308 53.7133 45.5758 54.4192 46.4508 55.3C52.8967 61.7983 59.2842 68.1858 65.7242 74.69C70.5594 79.621 76.9159 82.7776 83.7667 83.65C95.13 85.1725 104.796 81.6608 112.467 73.1617C116.626 68.5358 119.146 62.9708 120.202 56.7642C121.718 47.5067 119.56 39.1883 113.814 31.8675C108.722 25.3633 102.043 21.3208 93.9575 19.8567C85.6975 18.3983 77.91 19.9733 70.8225 24.4883C70.6475 24.605 70.2392 24.6633 70.0583 24.5467C67.4815 22.6403 64.7363 20.9728 61.8567 19.565C61.8567 19.565 61.7983 19.5067 61.74 19.39C63.9899 17.5167 66.446 15.906 69.0608 14.5892C73.8203 12.0054 79.0683 10.4475 84.4667 10.0158C85.7671 9.91748 87.0709 9.87078 88.375 9.87583H88.3808ZM44.0183 25.41C52.5058 25.27 60.2992 28.4725 67.2467 34.9183C72.2283 39.5967 76.7958 44.4617 81.5967 49.3267C82.9442 50.6683 83.2358 52.3717 82.5942 54.1858C81.9525 56 80.4825 56.8808 78.61 57.1725C77.9327 57.2648 77.2432 57.1909 76.6009 56.9572C75.9586 56.7234 75.3828 56.3368 74.9233 55.8308C70.35 51.2575 65.7825 46.7483 61.2733 42.1225C57.5808 38.3133 53.1883 36.1433 48.0317 35.2042C36.61 33.1567 25.0717 39.7775 20.9708 50.61C15.6975 64.3767 24.0158 79.9575 38.3658 83.2417C41.1775 83.8833 44.17 83.8833 47.0983 83.825C47.915 83.7667 48.3817 84.0583 48.965 84.5833C51.7825 87.3425 54.7692 90.0958 57.6975 92.8433C57.8725 93.0183 58.1058 93.1933 58.2808 93.3683C57.9308 93.3683 57.6975 93.4267 57.4642 93.4267H44.0475C36.3066 93.4251 28.7976 90.7841 22.76 85.9396C16.7224 81.0951 12.5171 74.3367 10.8383 66.78C7.02917 49.6183 16.87 32.2175 33.74 27.125C37.0678 26.0703 40.5284 25.4929 44.0183 25.41Z" fill="#7204FD"/>
</svg>
