<svg width="129" height="129" viewBox="0 0 129 129" fill="none" xmlns="http://www.w3.org/2000/svg">
<path d="M127.828 121.706L108.889 102.884V30.4726L99.9445 14.0226C99.2847 12.7684 98.2948 11.7184 97.0817 10.9858C95.8685 10.2533 94.4783 9.8661 93.0612 9.8661C91.644 9.8661 90.2538 10.2533 89.0407 10.9858C87.8276 11.7184 86.8377 12.7684 86.1778 14.0226L77.7778 30.5115V71.9282L6.65007 1.1504C6.10612 0.601948 5.41118 0.227912 4.65382 0.0759744C3.89647 -0.0759631 3.11103 0.00108156 2.39764 0.297286C1.68424 0.59349 1.07522 1.09543 0.648218 1.73912C0.221214 2.38281 -0.00442625 3.13908 6.57882e-05 3.91151V35.3337H8.43896V41.556H6.57882e-05V66.4448H8.43896V72.6671H6.57882e-05V98.5282H8.43896V104.75H6.57882e-05V124.467C6.57882e-05 125.498 0.409787 126.488 1.13909 127.217C1.8684 127.946 2.85756 128.356 3.88895 128.356H125.067C125.839 128.36 126.595 128.135 127.239 127.708C127.883 127.281 128.385 126.672 128.681 125.958C128.977 125.245 129.054 124.46 128.902 123.702C128.75 122.945 128.376 122.25 127.828 121.706ZM31.1112 97.5559V62.3226L66.3834 97.5559H31.1112ZM101.111 105.762H85.5556V96.3115H101.111V105.762ZM101.111 90.2059H85.5556V32.4171L93.1001 17.756L101.111 32.4559V90.2059Z" fill="#6000FD"/>
</svg>
