<svg width="117" height="105" viewBox="0 0 117 105" fill="none" xmlns="http://www.w3.org/2000/svg">
<path d="M58.3332 77.0003C68.6425 77.0003 76.9998 68.643 76.9998 58.3337C76.9998 48.0243 68.6425 39.667 58.3332 39.667C48.0239 39.667 39.6665 48.0243 39.6665 58.3337C39.6665 68.643 48.0239 77.0003 58.3332 77.0003Z" fill="#DE0AFD"/>
<path d="M40.8333 0L30.1583 11.6667H11.6667C5.25 11.6667 0 16.9167 0 23.3333V93.3333C0 99.75 5.25 105 11.6667 105H105C111.417 105 116.667 99.75 116.667 93.3333V23.3333C116.667 16.9167 111.417 11.6667 105 11.6667H86.5083L75.8333 0H40.8333ZM58.3333 87.5C42.2333 87.5 29.1667 74.4333 29.1667 58.3333C29.1667 42.2333 42.2333 29.1667 58.3333 29.1667C74.4333 29.1667 87.5 42.2333 87.5 58.3333C87.5 74.4333 74.4333 87.5 58.3333 87.5Z" fill="#DE0AFD"/>
</svg>
