<svg width="130" height="104" viewBox="0 0 130 104" fill="none" xmlns="http://www.w3.org/2000/svg">
<path d="M110.5 0H19.5C14.3283 0 9.36838 2.05446 5.71142 5.71142C2.05446 9.36838 0 14.3283 0 19.5V84.5C0 89.6717 2.05446 94.6316 5.71142 98.2886C9.36838 101.946 14.3283 104 19.5 104H110.5C115.672 104 120.632 101.946 124.289 98.2886C127.946 94.6316 130 89.6717 130 84.5V19.5C130 14.3283 127.946 9.36838 124.289 5.71142C120.632 2.05446 115.672 0 110.5 0V0ZM106.145 13L65 43.875L23.855 13H106.145ZM110.5 91H19.5C17.7761 91 16.1228 90.3152 14.9038 89.0962C13.6848 87.8772 13 86.2239 13 84.5V21.125L61.1 57.2C62.2251 58.0438 63.5936 58.5 65 58.5C66.4064 58.5 67.7749 58.0438 68.9 57.2L117 21.125V84.5C117 86.2239 116.315 87.8772 115.096 89.0962C113.877 90.3152 112.224 91 110.5 91Z" fill="black"/>
</svg>
