<svg width="122" height="122" viewBox="0 0 122 122" fill="none" xmlns="http://www.w3.org/2000/svg">
<path d="M116.678 19.3193L100.437 3.09536C98.4544 1.11311 95.8009 0 92.9949 0C90.1889 0 87.5354 1.09786 85.5529 3.09536L68.061 20.5544C66.0785 22.5367 64.9653 25.2051 64.9653 28.0108C64.9653 30.8316 66.0633 33.4696 68.061 35.4671L81.7251 49.1446C78.6123 56.3964 74.1398 62.9853 68.549 68.5554C62.9523 74.182 56.41 78.6192 49.151 81.7603L35.4869 68.0827C33.5044 66.1005 30.8509 64.9874 28.0449 64.9874C26.6608 64.9823 25.2897 65.2534 24.0118 65.7849C22.7339 66.3164 21.5749 67.0976 20.6028 68.0827L3.09576 85.5418C1.11326 87.5241 0 90.1925 0 92.9981C0 95.819 1.09801 98.4569 3.09576 100.454L19.3218 116.678C22.7073 120.063 27.3739 122 32.1624 122C33.1536 122 34.1144 121.924 35.0904 121.756C55.2815 118.432 75.3201 107.682 91.5004 91.5191C107.665 75.3256 118.402 55.2896 121.757 35.0859C122.717 29.3526 120.796 23.4516 116.678 19.3193ZM110.944 33.2713C107.97 51.2488 98.3019 69.1806 83.7381 83.7425C69.1743 98.3045 51.2555 107.972 33.2756 110.945C31.0186 111.326 28.7006 110.564 27.0536 108.932L11.1173 92.9981L28.0144 76.088L46.284 94.3857L46.4212 94.5229L49.7152 93.3031C59.7029 89.6314 68.7727 83.8322 76.2959 76.3073C83.8192 68.7823 89.616 59.7117 93.2847 49.724L94.5047 46.4304L76.0826 28.026L92.9797 11.1159L108.916 27.0501C110.563 28.6969 111.325 31.0146 110.944 33.2713Z" fill="black"/>
</svg>
