<svg width="117" height="117" viewBox="0 0 117 117" fill="none" xmlns="http://www.w3.org/2000/svg">
<path d="M13.1367 46.6667C12.1576 50.4782 11.6637 54.3981 11.6667 58.3333C11.6667 62.3583 12.18 66.2667 13.1367 70H29.75C28.9635 62.2421 28.9635 54.4246 29.75 46.6667H13.1367ZM17.9083 35H31.5933C33.145 27.9008 35.385 21.5425 38.1325 16.2517C29.6635 20.3316 22.6171 26.8639 17.9083 35ZM103.53 46.6667H86.9167C87.7031 54.4246 87.7031 62.2421 86.9167 70H103.53C105.494 62.3462 105.494 54.3205 103.53 46.6667ZM98.7583 35C94.0496 26.8639 87.0031 20.3316 78.5342 16.2517C81.2875 21.5425 83.5217 27.9008 85.0733 35H98.7583ZM41.4867 46.6667C41.0496 50.5402 40.8315 54.4353 40.8333 58.3333C40.8333 62.3292 41.055 66.2375 41.4867 70H75.18C76.0585 62.247 76.0585 54.4196 75.18 46.6667H41.4867ZM43.575 35H73.0917C72.0301 30.6151 70.4987 26.3574 68.5242 22.3008C64.8608 14.98 60.9408 11.6667 58.3333 11.6667C55.72 11.6667 51.8058 14.98 48.1425 22.3008C46.305 25.9875 44.7592 30.275 43.575 35ZM17.9083 81.6667C22.6171 89.8028 29.6635 96.3351 38.1325 100.415C35.3792 95.1242 33.145 88.7658 31.5933 81.6667H17.9083ZM98.7583 81.6667H85.0733C83.5217 88.7658 81.2817 95.1242 78.5342 100.415C87.0031 96.3351 94.0496 89.8028 98.7583 81.6667ZM43.575 81.6667C44.7592 86.3917 46.305 90.6792 48.1425 94.3658C51.8058 101.687 55.7258 105 58.3333 105C60.9467 105 64.8608 101.687 68.5242 94.3658C70.3617 90.6792 71.9075 86.3917 73.0917 81.6667H43.575ZM58.3333 116.667C26.1158 116.667 0 90.5508 0 58.3333C0 26.1158 26.1158 0 58.3333 0C90.5508 0 116.667 26.1158 116.667 58.3333C116.667 90.5508 90.5508 116.667 58.3333 116.667Z" fill="#8D04FD"/>
</svg>
