<svg width="117" height="117" viewBox="0 0 117 117" fill="none" xmlns="http://www.w3.org/2000/svg">
<path d="M105 0H11.6667C8.57247 0 5.60501 1.22916 3.41709 3.41709C1.22916 5.60501 0 8.57247 0 11.6667V81.6667C0 84.7609 1.22916 87.7283 3.41709 89.9162C5.60501 92.1042 8.57247 93.3333 11.6667 93.3333H46.6667V105H29.1667V116.667H87.5V105H70V93.3333H105C108.094 93.3333 111.062 92.1042 113.25 89.9162C115.438 87.7283 116.667 84.7609 116.667 81.6667V11.6667C116.667 8.57247 115.438 5.60501 113.25 3.41709C111.062 1.22916 108.094 0 105 0ZM105 81.6667H11.6667V11.6667H105V81.6667Z" fill="#4E00FD"/>
</svg>
